<svg xmlns="http://www.w3.org/2000/svg" version="1.1" xmlns:xlink="http://www.w3.org/1999/xlink" xmlns:svgjs="http://svgjs.dev/svgjs" viewBox="0 0 2.580718348744769 2.4530813759849233"><g transform="matrix(1,0,0,1,1.2904212721999448,2.4309206423195553)"><g><path d=" M -0.8870957852682553 -1.6404447029856624 L -0.8258038553252987 -1.6294390282736013 L -0.8104963000762238 -1.6511661734219296 L -1.0187361414682665 -1.6886119399786037 L -1.0266266338646968 -1.6774123806237955 L -0.9165445178842474 -1.5006440956933054 L -0.9092852648795315 -1.5109476902997292 L -0.9415401828036245 -1.5631677434374847 L -0.8870957852682553 -1.6404447029856624 M -0.9004893954940835 -1.6428423312134302 L -0.9486213991123085 -1.5745250191490991 L -1.0013818110619974 -1.6599616688428878 L -1.000750571670283 -1.6608576335912724 L -0.9004893954940835 -1.6428423312134302 M -0.6872472289438857 -1.8843204725709624 L -0.7277939540807095 -1.84827546480735 L -0.7203300888367291 -1.8398794257638664 L -0.6973945675472126 -1.8602685210644956 L -0.6644443331774459 -1.8232030804091162 Q -0.6683801786623565 -1.8090723714276493 -0.6754562694337715 -1.7976492930599457 Q -0.6825323602051864 -1.7862262146922423 -0.6948192466102845 -1.7753034850669052 Q -0.710996980376997 -1.7609218910602114 -0.7274481771921449 -1.7550959614906692 Q -0.7438993740072929 -1.7492700319211272 -0.7596227836552204 -1.7508734688682692 Q -0.7753461933031479 -1.7524769058154113 -0.7899890927695083 -1.7609067329321473 Q -0.8046319922358689 -1.7693365600488835 -0.817375176798762 -1.7836712608548313 Q -0.8299363158678997 -1.7978011802206941 -0.8367064978641535 -1.8130463453801011 Q -0.8434766798604074 -1.8282915105395083 -0.8435456773149995 -1.8436280142920347 Q -0.8436146747695916 -1.8589645180445613 -0.8368459140814251 -1.873413925082441 Q -0.8300771533932584 -1.8878633321203209 -0.8155376711472256 -1.9007885621769698 Q -0.8059129434632322 -1.9093447003834838 -0.7956964494821922 -1.9147607512266143 Q -0.7854799555011523 -1.920176802069745 -0.7760142215183434 -1.9227257548285652 Q -0.7665484875355346 -1.9252747075873855 -0.7586185353918026 -1.9248086206876338 Q -0.7506885832480706 -1.9243425337878821 -0.7456369392386928 -1.9211343965086316 L -0.7308926755525751 -1.9342416720590359 Q -0.7367407093759634 -1.9371084542971047 -0.7461497614160697 -1.9388259657836955 Q -0.7555588134561759 -1.9405434772702863 -0.7675048185894546 -1.938722548563368 Q -0.7794508237227333 -1.9369016198564493 -0.7936151628543318 -1.93035903420817 Q -0.8077795019859302 -1.923816448559891 -0.8229333285522179 -1.9103450820219752 Q -0.8403397509594402 -1.8948712150527478 -0.8506125320753807 -1.876940207687182 Q -0.8608853131913211 -1.859009200321616 -0.8633419008567367 -1.8403276698425004 Q -0.8657984885221522 -1.8216461393633847 -0.8598131704436234 -1.8029536357189062 Q -0.8538278523650946 -1.784261132074428 -0.8387180763833784 -1.7672642725473755 Q -0.8257928463267294 -1.7527247903013428 -0.8090792385900691 -1.7432028481451938 Q -0.7923656308534088 -1.7336809059890448 -0.7732859054672879 -1.73139499584422 Q -0.7542061800811669 -1.7291090856993956 -0.7337274833417473 -1.7357657458871234 Q -0.7132487866023276 -1.7424224060748514 -0.6927706425938307 -1.760626955450413 Q -0.6774120345874581 -1.7742803674820844 -0.6685384617094976 -1.788217899881312 Q -0.6596648888315371 -1.80215543228054 -0.6555241039834206 -1.8131687898449527 L -0.6480602387394404 -1.804772750801469 L -0.6304490348921331 -1.8204286632644522 L -0.6872472289438857 -1.8843204725709624 M -0.6538904511983249 -2.0326526237097378 L -0.5622463945654912 -1.8641634344901383 L -0.5403427999669432 -1.8760771618524068 L -0.5807971049662941 -1.9504531039507729 L -0.5702063559296335 -1.9562135875105509 Q -0.5634667883608496 -1.9598793497758642 -0.5583592593840971 -1.9610978770638778 Q -0.5532517304073445 -1.9623164043518913 -0.5480702068103618 -1.9613918194645446 Q -0.5428886832133789 -1.9604672345771978 -0.5372721167335522 -1.957595917635847 Q -0.5316555502537257 -1.9547246006944963 -0.5236572088370511 -1.950341594581985 L -0.489324350873637 -1.9325225164895576 Q -0.48270270638670965 -1.9289502443430457 -0.47672509164426957 -1.926275307523051 Q -0.47074747690182955 -1.9236003707030565 -0.46488817550000605 -1.9225765777149044 Q -0.4590288740981826 -1.9215527847267524 -0.452806488353491 -1.922441975732251 Q -0.44658410260879955 -1.92333116673775 -0.439363137356531 -1.9272587691648713 Q -0.4340677628382007 -1.9301390109447603 -0.4309598192156169 -1.9324532897609017 Q -0.42785187559303295 -1.934767568577043 -0.42552945245587337 -1.9385260404436377 L -0.43037349544932313 -1.9474318975881024 Q -0.4314460695771305 -1.94653659834184 -0.4325841037453899 -1.9457616485164484 Q -0.43372213791364933 -1.9449866986910571 -0.43492563212236074 -1.9443320982865369 Q -0.4399803077989487 -1.9415827765875517 -0.44461700975224955 -1.9409322483435407 Q -0.4492537117055504 -1.9402817200995297 -0.45412907642033895 -1.9412168756469093 Q -0.4590044411351275 -1.9421520311942888 -0.464293707412694 -1.944421601031284 Q -0.4695829736902605 -1.946691170868279 -0.4757020791736375 -1.9499129654122103 Q -0.49379755546196036 -1.9590969513605196 -0.5041122117750307 -1.96487129722332 Q -0.514426868088101 -1.9706456430861203 -0.5202947040697028 -1.9736921988287612 Q -0.5261625400513046 -1.9767387545714024 -0.5293867609342505 -1.9777922234593985 Q -0.5326109818171963 -1.9788456923473947 -0.5362848884035281 -1.9787188444269999 L -0.5393464772254711 -1.9786131378266707 L -0.5398701575490873 -1.9795759331936398 Q -0.5287093733881698 -1.986582193602261 -0.5227618248043339 -1.995431515544812 Q -0.5168142762204979 -2.0042808374873626 -0.5150537438865769 -2.0136599479942934 Q -0.513293211552656 -2.023039058501224 -0.5150102056837106 -2.0319302728251465 Q -0.5167271998147653 -2.040821487149069 -0.5206548022418868 -2.0480424524013374 Q -0.524189644426296 -2.0545413211283794 -0.5309064248535196 -2.06086902321464 Q -0.537623205280743 -2.0671967253009003 -0.5473613279700327 -2.07047748138576 Q -0.5570994506593223 -2.07375823747062 -0.5701122211927077 -2.072450682483074 Q -0.5831249917260931 -2.071143127495528 -0.5992518141228262 -2.0623714820749566 L -0.6538904511983249 -2.0326526237097378 M -0.6262263730399988 -2.033975602035346 L -0.6019157900240281 -2.0471985302066544 Q -0.5927692340378212 -2.0521734932810083 -0.583987798474737 -2.053518868489417 Q -0.5752063629116528 -2.054864243697825 -0.5673580468156936 -2.0530508580637394 Q -0.5595097307197344 -2.051237472429654 -0.5532068518552888 -2.046244184633009 Q -0.5469039729908433 -2.0412508968363636 -0.5427145304019136 -2.0335485339006105 Q -0.5391796882175044 -2.027049665173569 -0.538106723830937 -2.0190557861761635 Q -0.5370337594443697 -2.011061907178758 -0.5391427333006167 -2.002896861540572 Q -0.5412517071568635 -1.9947318159023855 -0.5467601406973466 -1.98736896965042 Q -0.5522685742378296 -1.9800061233984545 -0.561896527907521 -1.9747693201622927 L -0.5866885086069763 -1.9612845518291757 L -0.6262263730399988 -2.033975602035346 M -0.40715131485868705 -2.147424854478292 L -0.3464009471916705 -1.965500054551723 L -0.3227507232012165 -1.973397602348435 L -0.383501090868233 -2.1553224022750044 L -0.40715131485868705 -2.147424854478292 M -0.10101122397509296 -2.212529538469431 L -0.09310313809323797 -2.020892636548936 L -0.06819034084357369 -2.0219206877135774 L -0.07212178925341017 -2.1171916046683372 L 0.01274598159709453 -2.1206937569874444 L 0.0122263073820012 -2.1332870391136485 L -0.0726414634685035 -2.1297848867945413 L -0.07547707712042578 -2.198500404483176 L 0.02335281087000063 -2.2025787173451037 L 0.022731461264997727 -2.2176359024959997 L -0.10101122397509296 -2.212529538469431 M 0.13344801587759086 -2.21020778752676 L 0.10300462980908448 -2.020839257288275 L 0.1276225387400875 -2.016881617099369 L 0.14106111916175673 -2.100474296876072 L 0.15296428391960434 -2.0985607126089088 Q 0.16053902512914373 -2.0973429771661682 0.16532631209924292 -2.095185769604083 Q 0.1701135990693421 -2.0930285620419973 0.1736496095275638 -2.0891298861078695 Q 0.17718561998578553 -2.085231210173742 0.17987614363978363 -2.079525830040282 Q 0.18256666729378174 -2.0738204499068225 0.18621840834288822 -2.0654628787698073 L 0.20250160508406687 -2.0303755280022147 Q 0.20555921947549774 -2.0235010608786252 0.20865553283714977 -2.0177304449178757 Q 0.21175184619880175 -2.0119598289571266 0.21576367377327232 -2.007568382212292 Q 0.2197755013477429 -2.0031769354674576 0.2252438960785706 -2.000077676835485 Q 0.23071229080939826 -1.9969784182035124 0.23882808496247618 -1.9956737016577193 Q 0.24477966734139997 -1.9947169095241377 0.24865401904922255 -1.994649094746306 Q 0.2525283707570451 -1.9945812799684746 0.25666366577402633 -1.9961366240212586 L 0.25827281618050446 -2.006146103476721 Q 0.25687669327013174 -2.0060930297625843 0.25550231563552217 -2.006175219284332 Q 0.2541279380009127 -2.0062574088060794 0.25277530564206635 -2.0064748615637114 Q 0.2470942497349118 -2.007388163145767 0.24302676949576224 -2.009707170800805 Q 0.2389592892566126 -2.012026178455844 0.23567205999439697 -2.0157461006025605 Q 0.2323848307321813 -2.019466022749277 0.2295855806993671 -2.024495086703314 Q 0.22678633066655288 -2.0295241506573505 0.22391226164383837 -2.035814074285875 Q 0.215203073472642 -2.0541427922279105 0.2105683697526639 -2.065017291132597 Q 0.20593366603268584 -2.0758917900372826 0.2031513696943295 -2.081889441918275 Q 0.2003690733559732 -2.0878870937992673 0.19846101330967242 -2.0906915017331653 Q 0.1965529532633716 -2.0934959096670633 0.19356757891129908 -2.095640955115996 L 0.19107976695123863 -2.097428492990107 L 0.19125372915734437 -2.098510598877184 Q 0.20436947145684836 -2.0972346318192225 0.21448546466036383 -2.1006036842834073 Q 0.2246014578638793 -2.103972736747592 0.23172728513401694 -2.1103201593517804 Q 0.23885311240415455 -2.116667581955969 0.24292832949492996 -2.1247542603014367 Q 0.2470035465857054 -2.132840938646904 0.24830826313149854 -2.1409567327999817 Q 0.24948250802271235 -2.148260947537752 0.24803367771798107 -2.157374445425396 Q 0.24658484741324982 -2.16648794331304 0.24088241255011064 -2.1750364303506187 Q 0.23517997768697144 -2.1835849173881976 0.22408138813236295 -2.1905032413830923 Q 0.21298279857775443 -2.197421565377987 0.19485752496921377 -2.2003354323302586 L 0.13344801587759086 -2.21020778752676 M 0.15615234054143062 -2.194346982580006 L 0.18347551419012625 -2.189954436875836 Q 0.1937555201173583 -2.1883017959178317 0.20152818143953002 -2.1839995429068133 Q 0.20930084276170174 -2.179697289895795 0.21440435938586003 -2.1734652315627128 Q 0.21950787601001828 -2.1672331732296306 0.221444685544151 -2.159428817149306 Q 0.22338149507828373 -2.151624461068982 0.2219897974294377 -2.142967613972366 Q 0.22081555253822388 -2.1356633992345957 0.2167790344176696 -2.1286805720519686 Q 0.21274251629711527 -2.1216977448693415 0.2060829229806159 -2.116524200836588 Q 0.1994233296641165 -2.1113506568038347 0.19056340455378384 -2.1088897480206215 Q 0.18170347944345117 -2.106428839237408 0.1708824205726806 -2.1081684612984657 L 0.14301819398044643 -2.1126479881056888 L 0.15615234054143062 -2.194346982580006 M 0.3988859421873736 -2.150244685258923 L 0.335778955817743 -1.969123873999302 L 0.35932466128149376 -1.9609199657712502 L 0.42243164765112434 -2.142040777030871 L 0.3988859421873736 -2.150244685258923 M 0.5504806194421499 -2.088779270544683 L 0.4591848715497738 -1.9201010964474636 L 0.5681027782525494 -1.8611501278083866 L 0.5752760155869504 -1.8744034129160252 L 0.4882862715168132 -1.9214859343290935 L 0.526500063134622 -1.9920897986297865 L 0.6012003973776762 -1.9516588245631628 L 0.6071998322391752 -1.9627433902895515 L 0.5324994979961211 -2.003174364356175 L 0.5652355447403874 -2.063657538211035 L 0.6522252888105247 -2.016575016797967 L 0.6593985261449256 -2.0298283019056056 L 0.5504806194421499 -2.088779270544683 M 0.8708422833494806 -1.8644374081458097 L 0.7748626398946199 -1.7536378768188323 L 0.774034232183764 -1.7543554816297098 L 0.7572251201900001 -1.9672079035985028 L 0.7561896105514303 -1.9681049096120997 L 0.6284559542152419 -1.8206483370797486 L 0.6379826428900849 -1.8123958817546577 L 0.7339622863449454 -1.923195413081635 L 0.7347906940558013 -1.9224778082707576 L 0.7515998060495652 -1.7096253863019646 L 0.7526353156881351 -1.7087283802883677 L 0.8803689720243235 -1.8561849528207188 L 0.8708422833494806 -1.8644374081458097 M 0.8208174834592816 -1.6359852837228035 L 0.9771367947745053 -1.7471226442724144 L 1.0136533560979488 -1.6957605848402695 Q 1.026831071705974 -1.6772255807843215 1.0318682376032167 -1.6576096200195858 Q 1.0369054035004592 -1.6379936592548499 1.0343803340305275 -1.619556954718192 Q 1.0318552645605958 -1.601120250181534 1.0219293238333673 -1.5848180042724715 Q 1.0120033831061386 -1.568515758363409 0.9954781987671006 -1.556766951676736 Q 0.9782830745224261 -1.5445418420162789 0.9593544883002892 -1.54066575718347 Q 0.9404259020781522 -1.5367896723506616 0.9220711778224077 -1.5403816008710498 Q 0.9037164535666631 -1.5439735293914383 0.8874316422945628 -1.5545842482093166 Q 0.8711468310224626 -1.565194967027195 0.8592392566778615 -1.5819434646681119 L 0.8208174834592816 -1.6359852837228035 M 0.8450911256134023 -1.622649550200657 L 0.862555567985484 -1.598085086993979 Q 0.8755745159355813 -1.57977339623991 0.8908447720681116 -1.5712989919748943 Q 0.906115028200642 -1.5628245877098785 0.9218152168266499 -1.5615477724891922 Q 0.9375154054526577 -1.5602709572685058 0.9523850305898335 -1.5651274684936416 Q 0.9672546557270093 -1.5699839797187773 0.9793135740284694 -1.5785574332468901 Q 0.9927123721412028 -1.588083492722571 1.001930907236921 -1.6013613637751538 Q 1.011149442332639 -1.6146392348277365 1.0145277028322632 -1.6299844224120144 Q 1.0179059633318877 -1.6453296099962924 1.014439039376963 -1.6620276596515895 Q 1.0109721154220384 -1.6787257093068868 0.9992233087353652 -1.6952508936459247 L 0.9817588663632835 -1.7198153568526027 L 0.8450911256134023 -1.622649550200657" fill="#ebebeb" fill-rule="nonzero"></path></g><g clip-path="url(&quot;#SvgjsClipPath1001&quot;)"><g clip-path="url(&quot;#SvgjsClipPath1000&quot;)"><path d=" M 0.34267716547747284 -0.5595006867019898 L 0.3531244847057079 -0.6163225950689826 C 0.36798303603748617 -0.6921144355027247 0.38675904088536484 -0.767085412345238 0.4093769752145916 -0.8409339646038425 C 0.43239417958793924 -0.9149500212768172 0.4592552236562458 -0.9877155212981458 0.48985070324573343 -1.0589340931124576 C 0.4932012778002871 -1.0667740779377826 0.4966107920980475 -1.0745890882956437 0.5000792461390146 -1.082379124186041 C 0.5001751480940643 -1.081857657305458 0.5002830377934951 -1.0813391873609701 0.5003789397485453 -1.0808147235442915 C 0.5369427686762641 -0.874974334069973 0.4759683490776999 -0.6638160478368531 0.33530470268302126 -0.5091521603008564 Z" fill="#8fb819" transform="matrix(1,0,0,1,0,0)" fill-rule="nonzero"></path></g><g clip-path="url(&quot;#SvgjsClipPath1000&quot;)"><path d=" M -0.2757855518302534 -0.2671435767327446 C 0.13486062582070169 -0.217616210821725 0.5079132370921432 -0.5103629224833599 0.5574316121948767 -0.9210091001343149 C 0.6051668103209032 -1.3168054594330303 0.3349151009906314 -1.6776215806273398 -0.052378950605702634 -1.7475460936030085 C -0.026587318569503027 -1.7470046471484566 -0.0006028836445054475 -1.7451725202155264 0.02557435416928988 -1.742049712804218 C 0.45326410739424705 -1.6904664487318195 0.758184373475013 -1.3019286686559335 0.7066011094026142 -0.8742209338144049 C 0.6550178453302157 -0.44651319897287634 0.26647706831823426 -0.1416079175725864 -0.16122766958719892 -0.1931911816449856 C -0.3059911450669501 -0.21043120558905115 -0.44297476987247086 -0.2680856171605708 -0.5564965681331404 -0.35955410123149045 C -0.47001805014289344 -0.31035489042721753 -0.3745784403047506 -0.2789360151751612 -0.2757855518302529 -0.2671435767327446 Z" fill="#4caf7a" transform="matrix(1,0,0,1,0,0)" fill-rule="nonzero"></path></g><g clip-path="url(&quot;#SvgjsClipPath1000&quot;)"><path d=" M -0.3357482492251261 -0.4944611795616689 L -0.30042935734195014 -0.5397149146007825 C -0.29450141774543637 -0.5472282333917136 -0.2887413065702589 -0.5548884020513147 -0.2826725109772654 -0.5622968280789096 L -0.264070528633704 -0.5841744615746403 L -0.24545955548185622 -0.6060850613674189 L -0.2361510719698376 -0.6170478536040465 C -0.23306722472776797 -0.6207250941929865 -0.22995340812474574 -0.6243723654209734 -0.22665078454771892 -0.6278368235471465 L -0.18764865820341303 -0.670159555085051 L -0.17789063427709817 -0.6807537241819563 C -0.17464495248588208 -0.6842931057105122 -0.17115352193485123 -0.6875867384792524 -0.16779695350810908 -0.6910182303083772 L -0.14745974516536575 -0.7114213712452175 C -0.13385065835658305 -0.7249765132042845 -0.12054126515733155 -0.7388852936225974 -0.10623988611053325 -0.7517391525353627 L -0.06396510555015367 -0.7910529602335806 L -0.02025778953621782 -0.8288323366510021 C 0.0387654408163719 -0.8786469422460342 0.10033011454225715 -0.925369873115945 0.16418864244935683 -0.9688132277905296 C 0.22846393939311016 -1.0121363130592695 0.2949543057725271 -1.0520787491061454 0.36338899083212517 -1.088477889139985 C 0.3944582273321612 -1.1050809151079801 0.4260249552240144 -1.1207848602473809 0.45790336446977953 -1.135889418167721 C 0.4396100665440349 -1.1199497140554893 0.4215665132928986 -1.1037173091846162 0.40377270471637094 -1.0871922035551016 C 0.3455716630778706 -1.0330716927203385 0.2902329933221889 -0.9759524222386066 0.2379821999240732 -0.9160671525131601 C 0.1858073902647881 -0.8557611643727252 0.13679655347351383 -0.7927888162211937 0.09114731593457359 -0.7274040314414816 L 0.05741380324581524 -0.6778526900417003 L 0.025466464469858785 -0.6270785987150338 C 0.01453364159418391 -0.6102957565813225 0.004862528814632894 -0.5927816620403572 -0.0052101734016889445 -0.5754713591538723 L -0.0202278201752647 -0.5494429691661442 C -0.022691301645605733 -0.5450824271474743 -0.0253226115372841 -0.540808796275569 -0.027648233947241474 -0.5363733308545167 L -0.034652073601970534 -0.523078922335741 L -0.06266143834869575 -0.4698323587304474 C -0.06505898722494019 -0.4654238657342533 -0.06723476283013186 -0.46090448610253243 -0.06936258745779922 -0.4563641279181445 L -0.07582997555146864 -0.44277901659812446 L -0.08876774867490234 -0.41558781540541734 L -0.10170552179833614 -0.3883726387239479 C -0.10585028441814415 -0.37922598976107524 -0.10963841164261034 -0.3699264970573424 -0.11362133971327093 -0.3607019277559922 L -0.13724618695256474 -0.3051956743348385 C -0.13951486757671072 -0.2994805172010906 -0.14171461867066515 -0.2937323937702945 -0.14393534831728683 -0.28799625808387974 C -0.24462818889612487 -0.2847394189423167 -0.3447634055708846 -0.3041811912843684 -0.436921814866546 -0.34488110210887424 C -0.4053640777829785 -0.39607276653148693 -0.37163955590250525 -0.445932792349085 -0.3357482492251261 -0.4944611795616689 Z" fill="#90ba1a" transform="matrix(1,0,0,1,0,0)" fill-rule="nonzero"></path></g><g clip-path="url(&quot;#SvgjsClipPath1000&quot;)"><path d=" M -0.020284761961075426 -0.32319826945933916 C -0.017012107745001726 -0.3321890777452554 -0.013937251311218035 -0.3412727910501263 -0.010502762545997912 -0.3502096544863278 L 0.0003011920775786159 -0.3768224470126409 L 0.0111081436372501 -0.4034622119638116 L 0.01650262860880025 -0.4167895867796354 C 0.018273817841125584 -0.4212490276894505 0.020098951923166797 -0.42568749004659767 0.022136868467974247 -0.430018062704314 L 0.04590856557593814 -0.48243447501120795 L 0.05185448678902427 -0.4955520643003599 C 0.053826470739735566 -0.4999335848716966 0.05610713910826293 -0.5041532708938872 0.0582199790554534 -0.5084658619350315 L 0.07113677362621995 -0.5342125399298012 C 0.07980990668603416 -0.5513550143949488 0.08809044111736342 -0.5687342468116259 0.09764167645310218 -0.5854211869902868 L 0.1254592372897282 -0.6360064713429492 L 0.15512890463325302 -0.6855817882314932 C 0.1955604753657988 -0.751388175640774 0.2393744732267954 -0.8150555163224832 0.28639470560763103 -0.8763277798893989 C 0.3302298908949691 -0.9330138271534082 0.37685022879354346 -0.9875410814500972 0.4262557193033537 -1.0399095427794665 C 0.3984141829779654 -0.9815292276429145 0.37303113322942594 -0.9219681196848122 0.3501065700577354 -0.8612262189051599 C 0.3223227441062154 -0.7864778514925873 0.2984360215979863 -0.7103382357752686 0.27854273303793486 -0.6331144280109802 L 0.2642743202881851 -0.5748959474235742 L 0.25210675974124475 -0.5161559999555854 C 0.24773422997819405 -0.4966099827420025 0.24480022954088987 -0.47681521983250974 0.2414196856253853 -0.4570773987088279 L 0.23645376251546368 -0.427437700726256 C 0.23598923742069156 -0.42449770641676143 0.2354797582844893 -0.42155771210726645 0.23499125770095464 -0.4186177177977721 C 0.1567995986776709 -0.36112801988750687 0.06708501703760539 -0.32125396368152437 -0.02798389078991559 -0.30173721008085574 Z" fill="#91ca9d" transform="matrix(1,0,0,1,0,0)" fill-rule="nonzero"></path></g><g clip-path="url(&quot;#SvgjsClipPath1000&quot;)"><path d=" M -0.15296511677244196 -1.3969734999824532 L -0.1441691093327202 -1.6184141111284838 Z" fill="#f09d0f" transform="matrix(1,0,0,1,0,0)" fill-rule="nonzero"></path></g><g clip-path="url(&quot;#SvgjsClipPath1000&quot;)"><path d=" M -0.15462541936924123 -1.3970394325765498 C -0.1565194829814741 -1.4155964608786817 -0.1577692053332166 -1.4341295136920509 -0.1590758694707699 -1.4526625665054202 L -0.16071819045099744 -1.4804531549171887 L -0.16186302003940378 -1.5082227647762894 C -0.16220467075426892 -1.5174773034385929 -0.16316069336867123 -1.5267558175896587 -0.16392191513687904 -1.5360283378685344 C -0.16464380430752878 -1.5452628929108116 -0.164330171885274 -1.554549227259492 -0.16298687107514298 -1.563714033516967 C -0.161642161851004 -1.5730042642187576 -0.1596462815954547 -1.582188518018878 -0.1570139774371998 -1.5911989344470134 C -0.15433702418096373 -1.6006860780200973 -0.15058448265850966 -1.6098361658695974 -0.14582941192951915 -1.6184710529142938 L -0.14250580979982508 -1.6183391877261009 C -0.1384500167935684 -1.6093513982971914 -0.13543355061784246 -1.5999299689416742 -0.13351500151390883 -1.590257896513088 C -0.13160605108273227 -1.581067233649345 -0.13034523220793348 -1.5717537979578224 -0.12974185896991908 -1.562386390826747 C -0.12912996725951809 -1.5531445206597518 -0.12955417575162131 -1.5438632007365505 -0.1310065660021379 -1.5347156798587909 C -0.13250503404979075 -1.525533067662775 -0.13418931213535223 -1.5163594462750445 -0.13526521219356757 -1.5071588524624562 L -0.13860679593983283 -1.4795690587690737 L -0.1424488680140148 -1.4519972466922626 C -0.14521803696607694 -1.4336260284280398 -0.14793625800451915 -1.4152518132277216 -0.1512958233673568 -1.3969015735161656 Z" fill="#f09d0f" transform="matrix(1,0,0,1,0,0)" fill-rule="nonzero"></path></g><g clip-path="url(&quot;#SvgjsClipPath1000&quot;)"><path d=" M -0.2438621885430588 -1.380097752829788 L -0.3113352077927676 -1.5911899436387285 Z" fill="#f09d0f" transform="matrix(1,0,0,1,0,0)" fill-rule="nonzero"></path></g><g clip-path="url(&quot;#SvgjsClipPath1000&quot;)"><path d=" M -0.24544756773747534 -1.3795912706296813 C -0.25357525842794354 -1.3963741127633924 -0.2610885772188746 -1.41336973735987 -0.268652843923426 -1.4303383895314898 L -0.2797025473068174 -1.4558902666800648 L -0.29027573785105537 -1.481591990633405 C -0.2937611745298958 -1.490172218674265 -0.2978340106834163 -1.4985666366772155 -0.3017180398629322 -1.5070179964659773 C -0.3055557141931857 -1.5154489737364463 -0.3084377247776256 -1.5242829845547428 -0.310310255648173 -1.5333550708715222 C -0.3122255884727841 -1.5425451431950967 -0.3134914279586624 -1.5518586773870804 -0.3140983828726391 -1.5612265765578641 C -0.31482862425056424 -1.5710583551005015 -0.3144334644884028 -1.5809413711368525 -0.3129205869871836 -1.5906834614386216 L -0.30974982859835065 -1.5916964258388346 C -0.3028667326704452 -1.5846379524965015 -0.2968126230241507 -1.5768161755593608 -0.29170527636851606 -1.5683832599534528 C -0.28676707978528876 -1.560399271143012 -0.28239578087492995 -1.552078280846065 -0.27862365031250763 -1.5434817179375597 C -0.2748881700113675 -1.5350059044103705 -0.2721127259407853 -1.5261387576712875 -0.27034910975336884 -1.5170457446408694 C -0.26861088681809153 -1.5079050895501875 -0.26705248004853294 -1.4987074926736947 -0.26492465542086613 -1.489695705835111 L -0.2586310896207245 -1.462624382086216 L -0.2528140366597363 -1.435403211532556 C -0.24913080219860584 -1.4171908308813843 -0.24539961675995048 -1.3989964318467845 -0.2422828032208328 -1.3806042350298946 Z" fill="#f09d0f" transform="matrix(1,0,0,1,0,0)" fill-rule="nonzero"></path></g><g clip-path="url(&quot;#SvgjsClipPath1000&quot;)"><path d=" M -0.3235087622118986 -1.3331507488968266 L -0.459111129716188 -1.5084355472390567 Z" fill="#f09d0f" transform="matrix(1,0,0,1,0,0)" fill-rule="nonzero"></path></g><g clip-path="url(&quot;#SvgjsClipPath1000&quot;)"><path d=" M -0.32482441715773763 -1.3321317906244228 C -0.3382057368232767 -1.3451324994058584 -0.35107458041651834 -1.3585228098796835 -0.36398837805118994 -1.3718831509925553 L -0.38310883033923926 -1.392115466571963 L -0.4018336870627086 -1.4126504726969964 C -0.40804633558827674 -1.4195194502274369 -0.4147444877612847 -1.4260138107459637 -0.4212838023212412 -1.4326280487083034 C -0.42777423277486987 -1.439237144009757 -0.4335041176474448 -1.446552297030411 -0.43836633806448305 -1.4544367526738418 C -0.4433074161002499 -1.4624185191680508 -0.44768172041411525 -1.4707375086220984 -0.45145695492877785 -1.4793323008175447 C -0.45550796431288604 -1.4883221290206132 -0.4585174648615113 -1.4977457972938222 -0.4604267846620268 -1.507419585902748 L -0.45779547477034893 -1.5094545055114608 C -0.44891201911398804 -1.5051768279995512 -0.4405471257503107 -1.49989685984801 -0.4328639633935023 -1.4937175940750116 C -0.4254925198182816 -1.4879040482767245 -0.4185385012595941 -1.4815799372170881 -0.4120532391477011 -1.4747919426331566 C -0.4056447484408537 -1.4681036465200477 -0.40000349570371624 -1.4607203604626215 -0.3952344337808459 -1.4527794470131377 C -0.39047529926150115 -1.4447866184469575 -0.38587500235520694 -1.4366739124369654 -0.3807862048653784 -1.428935823438887 L -0.36560972047875123 -1.4056496299783627 L -0.3508318285927995 -1.382060745972213 C -0.3411457311327722 -1.3662069540280468 -0.33141467963131493 -1.3503831314448331 -0.3221931072660597 -1.3341667102331354 Z" fill="#f09d0f" transform="matrix(1,0,0,1,0,0)" fill-rule="nonzero"></path></g><g clip-path="url(&quot;#SvgjsClipPath1000&quot;)"><path d=" M -0.38229666065741186 -1.261793700467602 L -0.5696710992081044 -1.3801277221907409 Z" fill="#f09d0f" transform="matrix(1,0,0,1,0,0)" fill-rule="nonzero"></path></g><g clip-path="url(&quot;#SvgjsClipPath1000&quot;)"><path d=" M -0.3831807568055268 -1.2603881374389037 C -0.4001973599546715 -1.268024330609742 -0.41687231238895156 -1.2762089630860216 -0.4335772341841847 -1.284345644584776 L -0.45845180377522055 -1.2968158956773421 L -0.4830716337981556 -1.309702720887156 C -0.49125926321053004 -1.3140332935448724 -0.4997735586572928 -1.3178423993220059 -0.5081829613407204 -1.3218223304565713 C -0.5165417331926183 -1.3258132609240976 -0.5244277688446249 -1.3307268290907015 -0.5316939250083926 -1.3364713540904247 C -0.5390667785209184 -1.342282209331967 -0.5460227698245981 -1.348603288673866 -0.5525106431263848 -1.3553880147239938 C -0.5593889116020988 -1.3624520575275 -0.5654388791107484 -1.3702777010574683 -0.5705432076118385 -1.3787131683537561 L -0.5687660245073222 -1.3815272913472483 C -0.5589554955281764 -1.3805460420604994 -0.5492894522117835 -1.3784455152230974 -0.5399564778231501 -1.375266691844155 C -0.5310410506547318 -1.3723258532011422 -0.5223434675588163 -1.368761696812154 -0.513928087835421 -1.3646005962809624 C -0.5056184496217204 -1.3605083536137226 -0.4977927278494424 -1.3554992885409858 -0.490596940333468 -1.349666863718055 C -0.4833893090242586 -1.3437838781629705 -0.4762895674144797 -1.3377330641865488 -0.46886315977031257 -1.33220371709071 L -0.4466378816875264 -1.3155137799759535 L -0.42468232785331833 -1.2984012748717588 C -0.4101561785993723 -1.2868151199273077 -0.39561204772885455 -1.2752739190242859 -0.3813915859566297 -1.2631902726880142 Z" fill="#f09d0f" transform="matrix(1,0,0,1,0,0)" fill-rule="nonzero"></path></g><g clip-path="url(&quot;#SvgjsClipPath1000&quot;)"><path d=" M -0.4131291392059152 -1.1746338080078313 L -0.629678750644407 -1.221745643426034 Z" fill="#f09d0f" transform="matrix(1,0,0,1,0,0)" fill-rule="nonzero"></path></g><g clip-path="url(&quot;#SvgjsClipPath1000&quot;)"><path d=" M -0.41348277766516084 -1.1730094686441754 C -0.4320877569448177 -1.1743640837592537 -0.4505548771640904 -1.1763510523904412 -0.46903398512774386 -1.1782840761719133 L -0.4966867144791282 -1.1814937947299857 L -0.5242315541310815 -1.1851890169354973 C -0.5334051755188118 -1.1864567209038115 -0.5427106620947354 -1.18712803458916 -0.5519741915653247 -1.1879881552485125 C -0.5611940384503656 -1.1888819076947215 -0.570285182121104 -1.1908028691669437 -0.5790784816112675 -1.193715300126641 C -0.5879942323956261 -1.196654331171169 -0.5966927299633077 -1.2002154476057394 -0.605109868535091 -1.2043724048815476 C -0.6139895001158889 -1.2086531368142928 -0.6223511876270499 -1.2139339909278832 -0.6300323891036528 -1.2201123132540928 L -0.6293251121851607 -1.2233639889174992 C -0.6197703661427477 -1.2257973978094103 -0.6099685921568271 -1.2271297070555474 -0.6001109791281224 -1.2273349292437792 C -0.5907278690492199 -1.2276198228913997 -0.581336335618275 -1.2272452831704381 -0.5720057124263468 -1.2262140751441348 C -0.5627963338647937 -1.22521084451439 -0.5537281292530201 -1.223180274365207 -0.5449703519105961 -1.2201602642316178 C -0.5361893291513508 -1.2170973955422153 -0.5274472665613443 -1.2138397260066185 -0.5185763357192401 -1.2111694559457011 L -0.49198452174559376 -1.203077728488376 L -0.46549760053528355 -1.1945064912558023 C -0.4478876040392684 -1.1885875424675738 -0.43026262286277656 -1.1827195415929657 -0.41277550074666886 -1.1762251810744386 Z" fill="#f09d0f" transform="matrix(1,0,0,1,0,0)" fill-rule="nonzero"></path></g><g clip-path="url(&quot;#SvgjsClipPath1000&quot;)"><path d=" M -0.41229599097142033 -1.0821843233398463 L -0.6318964833549331 -1.052391781616414 Z" fill="#f09d0f" transform="matrix(1,0,0,1,0,0)" fill-rule="nonzero"></path></g><g clip-path="url(&quot;#SvgjsClipPath1000&quot;)"><path d=" M -0.4120712207642724 -1.0805360084874283 C -0.4300168741029622 -1.0754412171254086 -0.44805243552451035 -1.0709967608960707 -0.4660790061377731 -1.066495362880922 L -0.4931593206949538 -1.0600519502760153 L -0.5203085647823266 -1.0541030321268337 C -0.5293623087262445 -1.0521580206009802 -0.5383351353955893 -1.0496076279838753 -0.5473319375536965 -1.0472460423407743 C -0.556301049282385 -1.0449303787748165 -0.5655007166258513 -1.0436236078453471 -0.5747598966979331 -1.0433500254168775 C -0.584143722347728 -1.0430614161677039 -0.5935362329895141 -1.0434319491602895 -0.6028681603358037 -1.0444588917721407 C -0.6126778104189724 -1.045448098308717 -0.6223425249214247 -1.0475535823045703 -0.6316747100838802 -1.0507344759557105 L -0.6321212535620806 -1.0540311056605467 C -0.6239742021373722 -1.0595851587183223 -0.6152193376438192 -1.064190336090606 -0.6060269309802553 -1.067757072977046 C -0.5973069523669674 -1.0712345279912974 -0.5883529427382979 -1.0740936821675473 -0.5792313253521285 -1.0763133255291435 C -0.5702360922767741 -1.0785207054524304 -0.5610221616077462 -1.0797149177189376 -0.5517614091025578 -1.0798736856103663 C -0.542470907207111 -1.0799995569263692 -0.5331294573980438 -1.0799276304600818 -0.5238899034162168 -1.0804730728294276 L -0.4961382751736877 -1.0819715408770803 L -0.46832071433706146 -1.0829755144690079 C -0.4497397105461668 -1.083437042627685 -0.4311796853079398 -1.0839525156360774 -0.4125237581146631 -1.0838296412561697 Z" fill="#f09d0f" transform="matrix(1,0,0,1,0,0)" fill-rule="nonzero"></path></g><g clip-path="url(&quot;#SvgjsClipPath1000&quot;)"><path d=" M -0.37989012097288155 -0.9955938487381835 L -0.5760605669632958 -0.8924932531874824 Z" fill="#f09d0f" transform="matrix(1,0,0,1,0,0)" fill-rule="nonzero"></path></g><g clip-path="url(&quot;#SvgjsClipPath1000&quot;)"><path d=" M -0.37911691146029225 -0.9941223531153884 C -0.39424244793329954 -0.9832045149201901 -0.4096646810797416 -0.9728441068387189 -0.42506293873742146 -0.9624597232684853 L -0.4483071750926111 -0.9471393859492832 L -0.4717851724632347 -0.9322655921082822 C -0.4796281542246491 -0.927341626103695 -0.48718642705700954 -0.9218722177297629 -0.49483460797222933 -0.9165796285854529 C -0.5024718501932504 -0.9113372257728442 -0.5106714915293149 -0.9069654910455489 -0.5192806157016366 -0.9035459535069694 C -0.5279987248576576 -0.9000649805933695 -0.5369506369557784 -0.8972008494153154 -0.546070227457572 -0.8949747162743954 C -0.5556268408962116 -0.892548125980549 -0.5654295099183101 -0.8912218647804108 -0.5752873574507064 -0.8910217575646874 L -0.5768337764758842 -0.8939647488102773 C -0.5710776911041787 -0.9019692368336284 -0.5644263585922245 -0.9092902273127721 -0.5570090442054378 -0.9157854405201966 C -0.5500040127785201 -0.9220349849783863 -0.5425682636135889 -0.9277842962182344 -0.534756793697795 -0.9329908506433459 C -0.5270579254783525 -0.9381423558092841 -0.518807017343846 -0.9424165835612237 -0.5101579422275266 -0.9457338229205846 C -0.5014668275511407 -0.9490304526254211 -0.492670820111419 -0.9521562569728246 -0.4841655154729421 -0.9558245067534783 L -0.4586016505799856 -0.9667243633321043 L -0.4328010277355006 -0.9771806733686255 C -0.4155057095294925 -0.9839687336244923 -0.39823436681224655 -0.9908047448578845 -0.3806543396771841 -0.9970683412970728 Z" fill="#f09d0f" transform="matrix(1,0,0,1,0,0)" fill-rule="nonzero"></path></g><g clip-path="url(&quot;#SvgjsClipPath1000&quot;)"><path d=" M 0.11117583985950164 -1.179368967038414 L 0.3307793291791098 -1.209158511825751 Z" fill="#f09d0f" transform="matrix(1,0,0,1,0,0)" fill-rule="nonzero"></path></g><g clip-path="url(&quot;#SvgjsClipPath1000&quot;)"><path d=" M 0.11095406658844942 -1.181017281890832 C 0.128899719927139 -1.1861120732528518 0.14691729973211565 -1.1905565294821896 0.16495885502585494 -1.1950579274973383 L 0.19203916958303568 -1.2015013401022452 L 0.21918841367040842 -1.2074502582514266 C 0.2282451545504217 -1.20939526977728 0.23721498428367116 -1.2119456623943852 0.24621478337787372 -1.214307248037486 C 0.25518385591927695 -1.2166231080579304 0.26438354538011954 -1.2179298821290727 0.27364274252210996 -1.218203264961383 C 0.2830255707187638 -1.2184918719066957 0.2924170846755906 -1.218121338726484 0.3017480092238861 -1.2170943986061196 C 0.3115578892431713 -1.216106640229225 0.3212227670919542 -1.2140011206479357 0.3305545589719622 -1.21081881442255 L 0.3310011024501628 -1.2075221847177138 C 0.32285512930410987 -1.2019681084726819 0.3141012541346987 -1.1973629225921512 0.30490977680443254 -1.1937962174012138 C 0.2961896442293869 -1.1903191918020772 0.2872356651695468 -1.1874600473869288 0.2781141711763059 -1.1852399648491168 C 0.26911788895078703 -1.1830327583761364 0.25990298518494304 -1.1818385502738324 0.2506412579906402 -1.1816796047678935 C 0.24135075609519263 -1.1815537334518909 0.23201230322222066 -1.1816256599181783 0.22276975230429863 -1.1810802175488329 L 0.19501812406176933 -1.17958174950118 L 0.16719756628904814 -1.1785747789731573 C 0.1486165624981537 -1.17811325081448 0.1300565372599265 -1.1775977778060875 0.11140360700274521 -1.1777206521859953 Z" fill="#f09d0f" transform="matrix(1,0,0,1,0,0)" fill-rule="nonzero"></path></g><g clip-path="url(&quot;#SvgjsClipPath1000&quot;)"><path d=" M 0.07877296679705836 -1.2659564447039815 L 0.2749434127874725 -1.3690600371907777 Z" fill="#f09d0f" transform="matrix(1,0,0,1,0,0)" fill-rule="nonzero"></path></g><g clip-path="url(&quot;#SvgjsClipPath1000&quot;)"><path d=" M 0.07799975728446962 -1.2674309372628716 C 0.0931222968213814 -1.2783487754580698 0.10854752690391867 -1.2887091835395408 0.12394578456159855 -1.29909656404587 L 0.14719002091678812 -1.3144139044289767 L 0.17066502135131634 -1.3292876982699777 C 0.17851100004882636 -1.3342116642745647 0.1860662759450914 -1.3396810726484971 0.19371745379640648 -1.3449736617928072 C 0.2013540122510843 -1.3502154389235514 0.20955258912530994 -1.3545871420655335 0.2181604645897185 -1.358007336871291 C 0.22687959557832604 -1.361488312893743 0.23583250435449632 -1.3643524425469697 0.24495307328174987 -1.3665785741038647 C 0.25450866776805603 -1.3690051700054815 0.264310345086325 -1.3703314330730645 0.27416720633878855 -1.3705315328135728 L 0.27571662230006144 -1.3675885415679827 C 0.2699603754384794 -1.3595832641371228 0.26330795510124616 -1.352262183049548 0.25588889309352025 -1.345767849858063 C 0.24888502847195493 -1.3395169013350177 0.24144917768922336 -1.3337675115244232 0.23363664258587635 -1.328562439734914 C 0.22593846393134875 -1.3234115644509952 0.21768862069082895 -1.3191373676118712 0.20904078805170423 -1.315819467457675 C 0.20034967337531828 -1.312522837752839 0.19155066899950113 -1.3093970334054355 0.18304836129711943 -1.3057287836247817 L 0.157481499468068 -1.2948289270461557 L 0.13169286436796357 -1.284372617009634 C 0.11439754616195552 -1.277584556753767 0.09712620344470957 -1.2707515424564702 0.07954617630964733 -1.2644849490811865 Z" fill="#f09d0f" transform="matrix(1,0,0,1,0,0)" fill-rule="nonzero"></path></g><g clip-path="url(&quot;#SvgjsClipPath1000&quot;)"><path d=" M 0.018708373574944703 -1.3362405900110867 L 0.16778196882763252 -1.5002209454018243 Z" fill="#f09d0f" transform="matrix(1,0,0,1,0,0)" fill-rule="nonzero"></path></g><g clip-path="url(&quot;#SvgjsClipPath1000&quot;)"><path d=" M 0.017476632839774298 -1.337361444110731 C 0.02796590917334385 -1.3527926680654592 0.03890772285730404 -1.3677953301585586 0.049822564116407175 -1.3828309585487066 L 0.06642559008439963 -1.4051731171392094 L 0.08340023612821013 -1.4271826158231335 C 0.08909441470929058 -1.4344921429595836 0.09431807432340822 -1.4422152472771859 0.0996945776783863 -1.449806486406595 C 0.10507815684784194 -1.4573437853842064 0.11128740110933522 -1.4642556784620808 0.11820665193908853 -1.4704134189979152 C 0.12520829822883506 -1.4766668771233131 0.13264105269292004 -1.4824202016175416 0.14044991163844622 -1.487630816865446 C 0.1486006429962421 -1.4931792245707247 0.1573585224032623 -1.4977783681307375 0.1665532250285574 -1.5013388025653733 L 0.1690137095628037 -1.4991000913021801 C 0.1663420617612975 -1.4896138630818556 0.16259558384031692 -1.480463849909305 0.15784712567169557 -1.4718279728349002 C 0.15340192706127787 -1.4635586115407944 0.1483806606517577 -1.4556121119477459 0.14282048808983328 -1.4480472849186508 C 0.1373468518229537 -1.4405773706483913 0.13105627330928904 -1.4337419705376657 0.12406566200541147 -1.4276681194705731 C 0.11701986524534769 -1.4215933300053885 0.1098272186166146 -1.4156534026644931 0.10308710933827248 -1.40929690120635 L 0.08279185810086309 -1.3903113110425895 L 0.06212798372373152 -1.3716583807854077 C 0.04819522781665597 -1.359370942794655 0.03430442901491482 -1.3470355538263776 0.019934120437924863 -1.33514071446411 Z" fill="#f09d0f" transform="matrix(1,0,0,1,0,0)" fill-rule="nonzero"></path></g><g clip-path="url(&quot;#SvgjsClipPath1000&quot;)"><path d=" M -0.06177434526448533 -1.3817430707461107 L 0.022226776550833494 -1.5868174138756777 Z" fill="#f09d0f" transform="matrix(1,0,0,1,0,0)" fill-rule="nonzero"></path></g><g clip-path="url(&quot;#SvgjsClipPath1000&quot;)"><path d=" M -0.06331177348137695 -1.3823724273261249 C -0.05874444287213132 -1.4004589366612938 -0.05358371891601521 -1.418302694172743 -0.04847094593742396 -1.4361644333007637 L -0.040508086732196635 -1.4628371645489828 L -0.03208669630438821 -1.4893210888231978 C -0.029242603949943602 -1.4981350778794915 -0.0269679294536066 -1.507182827951219 -0.024510441855456033 -1.5161556546205635 C -0.022030921998576702 -1.5250798708757636 -0.018560870135297725 -1.5336987076879756 -0.014165018454461165 -1.541851384701713 C -0.00972319828067525 -1.550122021318471 -0.0047059703510518025 -1.5580704720325271 0.0008496313830190783 -1.565638066490153 C 0.006610566012718033 -1.5736396167016367 0.013266983844039903 -1.5809566488101763 0.020689348333942204 -1.5874467704556914 L 0.02376720170382096 -1.5861850603595677 C 0.024503256950595076 -1.5763528693390367 0.024113121421225236 -1.5664687655923766 0.02260439049884233 -1.5567251785427143 C 0.021253909701390183 -1.547435221304368 0.019250999798674062 -1.5382518794004152 0.016610518308231348 -1.5292432745487625 C 0.014023723639091323 -1.520348420093513 0.010450138616315163 -1.5117708108109946 0.005956410489419861 -1.5036704188475203 C 0.0014130553689368774 -1.4955517189653378 -0.003310115917264267 -1.487510939421633 -0.007466866281453655 -1.479233401926399 L -0.020053997881736896 -1.4544517373543178 L -0.033096663768506285 -1.4298558828201453 C -0.041982579291087396 -1.4135405627173019 -0.05082054383614354 -1.397189279381315 -0.060251901728070045 -1.3811077202939055 Z" fill="#f09d0f" transform="matrix(1,0,0,1,0,0)" fill-rule="nonzero"></path></g><g clip-path="url(&quot;#SvgjsClipPath1000&quot;)"><path d=" M -0.23621101069174333 -0.9725024561238542 C -0.1733113159234706 -1.007147037385586 -0.10923382526974346 -1.0386957836608677 -0.04516532542430174 -1.0664893690087311 C -0.017086032168685983 -1.078573015345003 0.011466776989988214 -1.0901411886728827 0.04049310205172085 -1.1011938889923694 C 0.043446945111554 -1.1146803832757477 0.04494003319611872 -1.1284457310271163 0.04494654908934448 -1.142251913498055 C 0.04494654908934492 -1.1931286268040018 0.02473585342206308 -1.2419215623889484 -0.011239415561055677 -1.2778968313720664 C -0.04721468454417388 -1.3138721003551852 -0.0960076201291209 -1.334082796022467 -0.14688433343506713 -1.334082796022467 C -0.19776077116060942 -1.3340827960286759 -0.24655339864385134 -1.3138720047167394 -0.28252819174315613 -1.277896649581547 C -0.3185029848424609 -1.2419212944463542 -0.3387130138683671 -1.1931283512173887 -0.3387122190233838 -1.1422519134980549 C -0.3387221730954386 -1.07102359834859 -0.29925203631539465 -1.0056581806139238 -0.23621101069183137 -0.9725024561239003 Z" fill="#f09d0f" transform="matrix(1,0,0,1,0,0)" fill-rule="nonzero"></path></g><g clip-path="url(&quot;#SvgjsClipPath1000&quot;)"><path d=" M -0.6126141965177372 -0.6656791356225693 L -0.5694852891701955 -0.7035424262506593 C -0.5622626731805093 -0.7098359920508013 -0.5551689254429208 -0.7162734107835176 -0.5478324258816125 -0.7224231236510841 L -0.525478279546729 -0.7404586850726327 L -0.5031121454674636 -0.7585152250468487 L -0.49192158608759307 -0.7675539843102902 C -0.48821137920160446 -0.7705898805748345 -0.4844712029546632 -0.7735928105423305 -0.48057818296686144 -0.7763889519192508 L -0.43437441918553604 -0.8107008732744037 L -0.4228122397298477 -0.8192930890596445 C -0.41896417378347534 -0.8221671507750422 -0.41492130699090796 -0.8247535066252912 -0.4109833329616768 -0.8274987000885912 L -0.3871996481093315 -0.843754081469528 C -0.37131588680421235 -0.8545430514126282 -0.3556359171535736 -0.865721623048118 -0.3391887318625372 -0.8756864355650087 L -0.29033867350905707 -0.9064349999028435 L -0.24034977943936048 -0.9354033842000671 C -0.17307724079376108 -0.9733487862912109 -0.1038841667900462 -1.0077837717548284 -0.033048712790986534 -1.0385699123448622 C 0.03817289549523706 -1.0691568154522193 0.11094030709577318 -1.0960108242835351 0.18495740958983065 -1.1190226618233416 C 0.22199654279171033 -1.1306148106399836 0.25941328994159996 -1.141065126804314 0.2970637981069234 -1.1507212549033885 C 0.30644121114913425 -1.1532926260731604 0.31594449550734793 -1.1553754966593979 0.3253758533992749 -1.1576561650279253 L 0.353756838221818 -1.1643842865618863 L 0.3822786790408411 -1.1704860484519282 C 0.3917909542073409 -1.1725089803162592 0.4012942385655548 -1.1746158263912592 0.4108634555178653 -1.1763480554543455 L 0.439532146205558 -1.1818144668921828 C 0.44910136315786875 -1.183591649996699 0.4587125372155133 -1.1851110965970189 0.4683027327204913 -1.1867624083855322 L 0.47245049227639424 -1.187463691431834 L 0.47248046163734714 -1.1873737833489748 C 0.4653057966251858 -1.1846765408631996 0.45812513774083363 -1.181979298377425 0.45105536549200786 -1.1790363071318346 C 0.4142709718582277 -1.1643513202648377 0.37776829021740677 -1.148866151460394 0.3417481152879295 -1.1322571316202104 C 0.2695159768180233 -1.0991090926232332 0.19906217828158812 -1.0622156304079522 0.13067390609555762 -1.0217271314892453 C 0.06222385921610685 -0.9808154956565728 -0.004057552850137758 -0.9363801409117091 -0.0679030795793828 -0.8886002331996808 L -0.11546745234797784 -0.8521215270476212 L -0.1617221640429236 -0.813922579576857 C -0.1773631735243234 -0.8014133683150518 -0.1920391695830339 -0.78781027537846 -0.2070298439317525 -0.7745308515401611 L -0.22944992286073312 -0.7545233061679011 C -0.23315713281062633 -0.7511547499967777 -0.2369962079487128 -0.7479300467582288 -0.24059253126307933 -0.7444386162071979 L -0.2514084736310367 -0.734006281659439 L -0.2946992155277253 -0.6922289924908802 C -0.29836446837228403 -0.68879450372566 -0.30184091424283865 -0.6851801987947217 -0.30528439381634465 -0.6815359245028298 L -0.3156867590031503 -0.6706630403490617 L -0.33649448631285656 -0.6488992904249526 L -0.3573112044308487 -0.6271085680759865 C -0.36411424936719233 -0.6197241175371531 -0.37062659150229116 -0.6120789335580292 -0.3773007681865364 -0.6045716086392887 L -0.4171330458292427 -0.5592699226226503 C -0.4598333913151554 -0.5082141193030258 -0.5002171051993977 -0.45523628096761115 -0.5382841874819685 -0.40033640761640754 C -0.605799673465893 -0.44512762555225427 -0.6647335461360504 -0.501665977390487 -0.7122862971754077 -0.5672657481249257 C -0.680187113637289 -0.601107150513116 -0.6469630800847318 -0.6339116130123306 -0.6126141965177372 -0.6656791356225693 Z" fill="#4caf7a" transform="matrix(1,0,0,1,0,0)" fill-rule="nonzero"></path></g></g></g><defs><clipPath id="SvgjsClipPath1001"><path d=" M -0.7122922910475992 -1.7475460936030085 h 1.4245845820951983 v 1.5600460936030085 h -1.4245845820951983 Z"></path></clipPath><clipPath id="SvgjsClipPath1000"><path d=" M -0.7122922910475993 -1.7475460936030085 L 0.7122922910475992 -1.7475460936030085 L 0.7122922910475992 -0.1875 L -0.7122922910475994 -0.1875 Z"></path></clipPath></defs></svg>